<svg width="100" height="100" viewBox="0 0 100 100" fill="none" xmlns="http://www.w3.org/2000/svg">
<g clip-path="url(#clip0)">
<path d="M49.9235 12C30.529 12 31.7401 20.4106 31.7401 20.4106L31.7617 29.124H50.2695V31.7401H24.4105C24.4105 31.7401 12 30.3326 12 49.9019C12 69.4711 22.8322 68.7772 22.8322 68.7772H29.2969V59.6963C29.2969 59.6963 28.9485 48.8641 39.9562 48.8641C50.9639 48.8641 58.3125 48.8641 58.3125 48.8641C58.3125 48.8641 68.6258 49.0308 68.6258 38.8967C68.6258 28.7627 68.6258 22.1403 68.6258 22.1403C68.6258 22.1403 70.1917 12 49.9235 12ZM39.7183 17.8593C41.5597 17.8593 43.048 19.3476 43.048 21.189C43.048 23.0304 41.5597 24.5187 39.7183 24.5187C37.8769 24.5187 36.3887 23.0304 36.3887 21.189C36.3887 19.3476 37.8769 17.8593 39.7183 17.8593Z" fill="url(#paint0_linear)"/>
<path d="M50.4743 88C69.8688 88 68.6577 79.5894 68.6577 79.5894L68.6361 70.876H50.1284V68.2599H75.9873C75.9873 68.2599 88.3978 69.6673 88.3978 50.0981C88.3978 30.5289 77.5656 31.2228 77.5656 31.2228H71.1009V40.3037C71.1009 40.3037 71.4494 51.1359 60.4417 51.1359C49.434 51.1359 42.0853 51.1359 42.0853 51.1359C42.0853 51.1359 31.772 50.9692 31.772 61.1033C31.772 71.2373 31.772 77.8597 31.772 77.8597C31.772 77.8597 30.2062 88 50.4743 88ZM60.6795 82.1407C58.8381 82.1407 57.3498 80.6524 57.3498 78.811C57.3498 76.9696 58.8381 75.4813 60.6795 75.4813C62.5209 75.4813 64.0092 76.9696 64.0092 78.811C64.0092 80.6524 62.5209 82.1407 60.6795 82.1407Z" fill="url(#paint1_linear)"/>
</g>
<defs>
<linearGradient id="paint0_linear" x1="19.342" y1="18.6431" x2="57.1185" y2="56.5459" gradientUnits="userSpaceOnUse">
<stop stop-color="#387EB8"/>
<stop offset="1" stop-color="#366994"/>
</linearGradient>
<linearGradient id="paint1_linear" x1="42.5804" y1="42.7552" x2="83.1525" y2="81.6253" gradientUnits="userSpaceOnUse">
<stop stop-color="#FFE052"/>
<stop offset="1" stop-color="#FFC331"/>
</linearGradient>
<clipPath id="clip0">
<rect x="12" y="12" width="76.3978" height="76" fill="white"/>
</clipPath>
</defs>
</svg>
